<?xml version="1.0" encoding="UTF-8"?><svg id="Layer_1" xmlns="http://www.w3.org/2000/svg" viewBox="0 0 1096 300"><defs><style>.cls-1{fill:#fffffe;}</style></defs><g><path class="cls-1" d="m273.56,166.78v78.98h-23.04V53.79h68.56c9.87,0,18.47,1.42,25.78,4.25,7.31,2.84,13.39,6.63,18.24,11.38,4.84,4.76,8.5,10.28,10.97,16.59,2.47,6.31,3.7,12.94,3.7,19.88v8.23c0,6.95-1.23,13.62-3.7,20.02-2.47,6.4-6.17,12.03-11.11,16.87-4.94,4.85-11.06,8.69-18.38,11.52-7.31,2.84-15.82,4.25-25.51,4.25h-45.53Zm0-21.39h42.78c25.6,0,38.4-10.97,38.4-32.91v-4.94c0-9.69-3.15-17.51-9.46-23.45-6.31-5.94-15.95-8.91-28.93-8.91h-42.78v70.21Z"/><path class="cls-1" d="m403.83,53.79h121.77v21.39h-49.37v149.19h49.37v21.39h-121.77v-21.39h49.37V75.18h-49.37v-21.39Z"/><path class="cls-1" d="m665.27,235.9h3.29V53.79h23.04v191.98h-46.07l-55.4-182.1h-3.29v182.1h-23.04V53.79h46.07l55.4,182.1Z"/><path class="cls-1" d="m838.33,198.05h-82.28l-13.99,47.72h-24.68l58.14-191.98h43.33l58.14,191.98h-24.68l-13.99-47.72Zm-42.78-134.38l-33.18,112.99h69.66l-33.18-112.99h-3.29Z"/><path class="cls-1" d="m924.99,53.79l43.06,85.02h4.94l43.06-85.02h25.23l-47.99,94.07v3.29l47.99,94.62h-25.23l-43.06-85.57h-4.94l-43.06,85.57h-25.23l47.99-94.62v-3.29l-47.99-94.07h25.23Z"/></g><g><path class="cls-1" d="m128.57,54.35l-27.94,24.77v6.12l27.94,24.77,27.94-24.77v-6.12l-27.94-24.77Zm17.65,29.76l-17.65,15.64-17.65-15.64v-3.87l17.65-15.64,17.65,15.64v3.87Z"/><path class="cls-1" d="m128.57,99.75l-27.94,24.77v6.12l27.94,24.77,27.94-24.77v-6.12l-27.94-24.77Zm17.65,29.76l-17.65,15.64-17.65-15.64v-3.87l17.65-15.64,17.65,15.64v3.87Z"/><path class="cls-1" d="m128.57,190.56l-27.94,24.77v6.12l27.94,24.77,27.94-24.77v-6.12l-27.94-24.77Zm17.65,29.76l-17.65,15.64-17.65-15.64v-3.87l17.65-15.64,17.65,15.64v3.87Z"/><path class="cls-1" d="m82.67,99.75l-27.94,24.77v6.12l27.94,24.77,27.94-24.77v-6.12l-27.94-24.77Zm17.65,29.76l-17.65,15.64-17.65-15.64v-3.87l17.65-15.64,17.65,15.64v3.87Z"/><path class="cls-1" d="m82.67,145.15l-27.94,24.77v6.12l27.94,24.77,27.94-24.77v-6.12l-27.94-24.77Zm17.65,29.76l-17.65,15.64-17.65-15.64v-3.87l17.65-15.64,17.65,15.64v3.87Z"/><path class="cls-1" d="m82.67,190.56l-27.94,24.77v6.12l27.94,24.77,27.94-24.77v-6.12l-27.94-24.77Zm17.65,29.76l-17.65,15.64-17.65-15.64v-3.87l17.65-15.64,17.65,15.64v3.87Z"/><path class="cls-1" d="m174.48,99.75l-27.94,24.77v6.12l27.94,24.77,27.94-24.77v-6.12l-27.94-24.77Zm17.65,29.76l-17.65,15.64-17.65-15.64v-3.87l17.65-15.64,17.65,15.64v3.87Z"/><path class="cls-1" d="m174.48,145.15l-27.94,24.77v6.12l27.94,24.77,27.94-24.77v-6.12l-27.94-24.77Zm17.65,29.76l-17.65,15.64-17.65-15.64v-3.87l17.65-15.64,17.65,15.64v3.87Z"/><path class="cls-1" d="m174.48,190.56l-27.94,24.77v6.12l27.94,24.77,27.94-24.77v-6.12l-27.94-24.77Zm17.65,29.76l-17.65,15.64-17.65-15.64v-3.87l17.65-15.64,17.65,15.64v3.87Z"/></g></svg>