<?xml version="1.0" encoding="UTF-8"?><svg id="Layer_1" xmlns="http://www.w3.org/2000/svg" xmlns:xlink="http://www.w3.org/1999/xlink" viewBox="0 0 1096 300"><defs><style>.cls-1{fill:url(#New_Gradient_Swatch_1-9);}.cls-2{fill:url(#New_Gradient_Swatch_1-12);}.cls-3{fill:url(#New_Gradient_Swatch_1-10);}.cls-4{fill:url(#New_Gradient_Swatch_1-3);}.cls-5{fill:url(#New_Gradient_Swatch_1-5);}.cls-6{fill:url(#New_Gradient_Swatch_1-14);}.cls-7{fill:url(#New_Gradient_Swatch_1-7);}.cls-8{fill:url(#New_Gradient_Swatch_1-6);}.cls-9{fill:url(#New_Gradient_Swatch_1-11);}.cls-10{fill:url(#New_Gradient_Swatch_1-13);}.cls-11{fill:url(#New_Gradient_Swatch_1);}.cls-12{fill:url(#New_Gradient_Swatch_1-2);}.cls-13{fill:url(#New_Gradient_Swatch_1-8);}.cls-14{fill:url(#New_Gradient_Swatch_1-4);}</style><linearGradient id="New_Gradient_Swatch_1" x1="-17.15" y1="65.28" x2="1088.96" y2="369.1" gradientUnits="userSpaceOnUse"><stop offset="0" stop-color="#f352a1"/><stop offset="1" stop-color="#6824eb"/></linearGradient><linearGradient id="New_Gradient_Swatch_1-2" x1="-4.93" y1="20.78" x2="1101.18" y2="324.6" xlink:href="#New_Gradient_Swatch_1"/><linearGradient id="New_Gradient_Swatch_1-3" x1="6.51" y1="-20.85" x2="1112.62" y2="282.98" xlink:href="#New_Gradient_Swatch_1"/><linearGradient id="New_Gradient_Swatch_1-4" x1="16.36" y1="-56.71" x2="1122.47" y2="247.11" xlink:href="#New_Gradient_Swatch_1"/><linearGradient id="New_Gradient_Swatch_1-5" x1="30.56" y1="-108.41" x2="1136.67" y2="195.42" xlink:href="#New_Gradient_Swatch_1"/><linearGradient id="New_Gradient_Swatch_1-6" x1="-11.24" y1="43.77" x2="1094.87" y2="347.59" xlink:href="#New_Gradient_Swatch_1"/><linearGradient id="New_Gradient_Swatch_1-7" x1="-22.84" y1="85.99" x2="1083.27" y2="389.81" xlink:href="#New_Gradient_Swatch_1"/><linearGradient id="New_Gradient_Swatch_1-8" x1="-46.03" y1="170.42" x2="1060.08" y2="474.25" xlink:href="#New_Gradient_Swatch_1"/><linearGradient id="New_Gradient_Swatch_1-9" x1="-26.06" y1="97.71" x2="1080.05" y2="401.54" xlink:href="#New_Gradient_Swatch_1"/><linearGradient id="New_Gradient_Swatch_1-10" x1="-37.66" y1="139.93" x2="1068.45" y2="443.75" xlink:href="#New_Gradient_Swatch_1"/><linearGradient id="New_Gradient_Swatch_1-11" x1="-49.25" y1="182.15" x2="1056.86" y2="485.97" xlink:href="#New_Gradient_Swatch_1"/><linearGradient id="New_Gradient_Swatch_1-12" x1="-19.62" y1="74.26" x2="1086.49" y2="378.09" xlink:href="#New_Gradient_Swatch_1"/><linearGradient id="New_Gradient_Swatch_1-13" x1="-31.22" y1="116.48" x2="1074.89" y2="420.3" xlink:href="#New_Gradient_Swatch_1"/><linearGradient id="New_Gradient_Swatch_1-14" x1="-42.81" y1="158.7" x2="1063.3" y2="462.52" xlink:href="#New_Gradient_Swatch_1"/></defs><g><path class="cls-11" d="m273.56,166.78v78.98h-23.04V53.79h68.56c9.87,0,18.47,1.42,25.78,4.25,7.31,2.84,13.39,6.63,18.24,11.38,4.84,4.76,8.5,10.28,10.97,16.59,2.47,6.31,3.7,12.94,3.7,19.88v8.23c0,6.95-1.23,13.62-3.7,20.02-2.47,6.4-6.17,12.03-11.11,16.87-4.94,4.85-11.06,8.69-18.38,11.52-7.31,2.84-15.82,4.25-25.51,4.25h-45.53Zm0-21.39h42.78c25.6,0,38.4-10.97,38.4-32.91v-4.94c0-9.69-3.15-17.51-9.46-23.45-6.31-5.94-15.95-8.91-28.93-8.91h-42.78v70.21Z"/><path class="cls-12" d="m403.83,53.79h121.77v21.39h-49.37v149.19h49.37v21.39h-121.77v-21.39h49.37V75.18h-49.37v-21.39Z"/><path class="cls-4" d="m665.27,235.9h3.29V53.79h23.04v191.98h-46.07l-55.4-182.1h-3.29v182.1h-23.04V53.79h46.07l55.4,182.1Z"/><path class="cls-14" d="m838.33,198.05h-82.28l-13.99,47.72h-24.68l58.14-191.98h43.33l58.14,191.98h-24.68l-13.99-47.72Zm-42.78-134.38l-33.18,112.99h69.66l-33.18-112.99h-3.29Z"/><path class="cls-5" d="m924.99,53.79l43.06,85.02h4.94l43.06-85.02h25.23l-47.99,94.07v3.29l47.99,94.62h-25.23l-43.06-85.57h-4.94l-43.06,85.57h-25.23l47.99-94.62v-3.29l-47.99-94.07h25.23Z"/></g><g><path class="cls-8" d="m128.57,54.35l-27.94,24.77v6.12l27.94,24.77,27.94-24.77v-6.12l-27.94-24.77Zm17.65,29.76l-17.65,15.64-17.65-15.64v-3.87l17.65-15.64,17.65,15.64v3.87Z"/><path class="cls-7" d="m128.57,99.75l-27.94,24.77v6.12l27.94,24.77,27.94-24.77v-6.12l-27.94-24.77Zm17.65,29.76l-17.65,15.64-17.65-15.64v-3.87l17.65-15.64,17.65,15.64v3.87Z"/><path class="cls-13" d="m128.57,190.56l-27.94,24.77v6.12l27.94,24.77,27.94-24.77v-6.12l-27.94-24.77Zm17.65,29.76l-17.65,15.64-17.65-15.64v-3.87l17.65-15.64,17.65,15.64v3.87Z"/><path class="cls-1" d="m82.67,99.75l-27.94,24.77v6.12l27.94,24.77,27.94-24.77v-6.12l-27.94-24.77Zm17.65,29.76l-17.65,15.64-17.65-15.64v-3.87l17.65-15.64,17.65,15.64v3.87Z"/><path class="cls-3" d="m82.67,145.15l-27.94,24.77v6.12l27.94,24.77,27.94-24.77v-6.12l-27.94-24.77Zm17.65,29.76l-17.65,15.64-17.65-15.64v-3.87l17.65-15.64,17.65,15.64v3.87Z"/><path class="cls-9" d="m82.67,190.56l-27.94,24.77v6.12l27.94,24.77,27.94-24.77v-6.12l-27.94-24.77Zm17.65,29.76l-17.65,15.64-17.65-15.64v-3.87l17.65-15.64,17.65,15.64v3.87Z"/><path class="cls-2" d="m174.48,99.75l-27.94,24.77v6.12l27.94,24.77,27.94-24.77v-6.12l-27.94-24.77Zm17.65,29.76l-17.65,15.64-17.65-15.64v-3.87l17.65-15.64,17.65,15.64v3.87Z"/><path class="cls-10" d="m174.48,145.15l-27.94,24.77v6.12l27.94,24.77,27.94-24.77v-6.12l-27.94-24.77Zm17.65,29.76l-17.65,15.64-17.65-15.64v-3.87l17.65-15.64,17.65,15.64v3.87Z"/><path class="cls-6" d="m174.48,190.56l-27.94,24.77v6.12l27.94,24.77,27.94-24.77v-6.12l-27.94-24.77Zm17.65,29.76l-17.65,15.64-17.65-15.64v-3.87l17.65-15.64,17.65,15.64v3.87Z"/></g></svg>